<?xml version="1.0" encoding="UTF-8"?><svg id="Layer_1" xmlns="http://www.w3.org/2000/svg" viewBox="0 0 1272 251.5"><defs><style>.cls-1{fill:#fff;}.cls-2{fill:#7fd4d8;}</style></defs><g><path class="cls-2" d="M180.97,81.91c.01-.53-.26-1.03-.71-1.31l-44.04-27.06c-.24-.15-.51-.22-.79-.22s-.54,.07-.78,.22l-42.97,26.34c-.45,.28-.72,.77-.72,1.29,0,.53,.29,1.01,.74,1.28l42.93,25.06c.23,.14,.49,.2,.76,.2s.5-.06,.73-.19l44.07-24.35c.47-.26,.76-.74,.77-1.28Zm-45.51,19.14l-34.23-19.98,34.2-20.97,35.11,21.58-35.08,19.38Z"/><path class="cls-2" d="M125.87,167.67l-44.06-27.72c-.24-.15-.52-.23-.8-.23s-.57,.08-.81,.24l-43.21,27.84c-.44,.29-.71,.79-.69,1.32,.02,.53,.32,1.01,.78,1.26l43.22,23.56c.22,.12,.47,.18,.72,.18s.49-.06,.71-.18l44.05-23.69c.47-.25,.77-.74,.79-1.27,.02-.53-.25-1.04-.7-1.32Zm-44.83,19.84l-34.42-18.77,34.43-22.19,35.09,22.08-35.1,18.88Z"/><path class="cls-2" d="M234.55,167.67l-44.06-27.72c-.24-.15-.52-.23-.8-.23s-.57,.08-.81,.24l-43.21,27.84c-.44,.29-.71,.79-.69,1.32,.02,.53,.32,1.01,.78,1.26l43.21,23.56c.22,.12,.47,.18,.72,.18s.49-.06,.71-.18l44.05-23.69c.47-.25,.77-.74,.79-1.27,.02-.53-.25-1.04-.7-1.32Zm-44.83,19.84l-34.42-18.77,34.43-22.19,35.09,22.08-35.1,18.88Z"/></g><g><path class="cls-1" d="M239.16,111.49l-45.13-25.96c-.23-.13-.49-.2-.75-.2s-.52,.07-.75,.2c-.46,.27-.75,.76-.75,1.29l-.17,49.19c0,.53,.27,1.01,.72,1.29l45.13,27.4c.24,.15,.51,.22,.78,.22,.25,0,.51-.06,.73-.19,.47-.26,.76-.76,.77-1.3l.17-50.63c0-.54-.29-1.04-.75-1.31Zm-41.54,22.01l.13-38.9,36.15,20.79-.13,40.05-36.15-21.94Z"/><path class="cls-1" d="M186.02,85.52c-.23-.13-.49-.2-.75-.2s-.52,.07-.75,.2l-44.98,25.97c-.47,.27-.75,.77-.75,1.3l.17,50.64c0,.54,.29,1.04,.77,1.3,.23,.13,.48,.19,.73,.19,.27,0,.54-.07,.78-.22l44.98-27.41c.45-.27,.72-.76,.72-1.29l-.17-49.2c0-.54-.29-1.03-.75-1.3Zm-5.09,47.97l-36,21.93-.13-40.05,36-20.78,.13,38.9Z"/><path class="cls-1" d="M131.07,111.49l-45.13-25.96c-.23-.13-.49-.2-.75-.2s-.52,.07-.75,.2c-.46,.27-.75,.76-.75,1.29l-.17,49.19c0,.53,.27,1.01,.72,1.29l45.13,27.4c.24,.15,.51,.22,.78,.22,.25,0,.51-.06,.73-.19,.47-.26,.76-.76,.77-1.3l.17-50.63c0-.54-.29-1.04-.75-1.31Zm-41.54,22.01l.13-38.9,36.15,20.79-.13,40.05-36.15-21.94Z"/><path class="cls-1" d="M77.94,85.52c-.23-.13-.49-.2-.75-.2s-.52,.07-.75,.2l-44.98,25.97c-.47,.27-.75,.77-.75,1.3l.17,50.64c0,.54,.29,1.04,.77,1.3,.23,.13,.48,.19,.73,.19,.27,0,.54-.07,.78-.22l44.98-27.41c.45-.27,.72-.76,.72-1.29l-.17-49.2c0-.54-.29-1.03-.75-1.3Zm-5.09,47.97l-36,21.93-.13-40.05,36-20.78,.13,38.9Z"/></g><path class="cls-1" d="M273.46,73.62c0-6.73,2.43-11.84,7.28-15.33s11.93-5.24,21.25-5.24v56.86h54.53v-36.29c0-6.73,2.43-11.84,7.28-15.33s11.93-5.24,21.25-5.24v118.76c0,6.73-2.43,11.84-7.28,15.33s-11.93,5.24-21.25,5.24v-57.83h-54.53v37.26c0,6.73-2.43,11.84-7.28,15.33s-11.93,5.24-21.25,5.24V73.62Z"/><path class="cls-1" d="M420.17,187.73c-6.99-3.1-12.49-7.4-16.5-12.9-4.01-5.5-6.02-11.74-6.02-18.73v-25.81c0-7.11,1.94-13.61,5.82-19.5,3.88-5.88,9.31-10.51,16.3-13.88,6.99-3.36,14.88-5.04,23.67-5.04s16.69,1.68,23.67,5.04c6.99,3.37,12.42,7.99,16.3,13.88,3.88,5.89,5.82,12.39,5.82,19.5v25.81c0,6.99-2.01,13.23-6.02,18.73-4.01,5.5-9.51,9.8-16.5,12.9-6.99,3.11-14.75,4.66-23.29,4.66s-16.3-1.55-23.29-4.66Zm37.45-22.32c3.36-2.72,5.05-6.47,5.05-11.25v-22.51c0-5.05-1.72-9.12-5.14-12.23-3.43-3.1-8.12-4.66-14.07-4.66s-10.64,1.55-14.07,4.66c-3.43,3.1-5.14,7.18-5.14,12.23v22.51c0,4.79,1.68,8.54,5.05,11.25,3.36,2.72,8.08,4.08,14.17,4.08s10.8-1.36,14.17-4.08Z"/><path class="cls-1" d="M501.87,112.05c0-6.47,2.13-11.45,6.4-14.94,4.27-3.49,10.61-5.24,19.02-5.24v11.45c-1.94,2.07-3.56,4.27-4.85,6.6l1.36,.78c3.88-5.95,8.83-10.58,14.85-13.88s12.71-4.95,20.08-4.95c6.47,0,12.19,1.49,17.17,4.46,4.98,2.98,8.89,7.08,11.74,12.32,2.84,5.24,4.27,11.09,4.27,17.56v50.65c0,5.56-2.2,9.54-6.6,11.93-4.4,2.39-11.06,3.59-19.99,3.59v-62.1c0-4.4-1.39-8.08-4.17-11.06-2.78-2.97-6.7-4.46-11.74-4.46-6.21,0-11.25,2.01-15.14,6.02-3.88,4.01-5.82,9.06-5.82,15.14v40.95c0,5.56-2.17,9.54-6.5,11.93-4.34,2.39-11.03,3.59-20.08,3.59V112.05Z"/><path class="cls-1" d="M633.53,187.54c-6.79-3.23-12.2-7.63-16.2-13.2-4.01-5.56-6.02-11.77-6.02-18.63v-24.84c0-7.24,2.04-13.88,6.11-19.89s9.54-10.7,16.4-14.07c6.86-3.36,14.23-5.04,22.12-5.04s14.91,1.59,21.44,4.75c6.53,3.17,11.67,7.63,15.43,13.39,3.75,5.76,5.63,12.26,5.63,19.5v10.48c0,3.1-1.16,5.72-3.49,7.86-2.33,2.13-5.31,3.2-8.93,3.2h-48.9v2.72c0,5.18,1.58,9.41,4.75,12.71,3.17,3.3,7.86,4.95,14.07,4.95s10.54-1.33,13.39-3.98c2.84-2.65,4.27-5.98,4.27-9.99,2.59-.26,4.53-.39,5.82-.39,5.3,0,9.38,1.1,12.23,3.3,2.84,2.2,4.27,5.43,4.27,9.7,0,3.49-1.75,6.99-5.24,10.48-3.49,3.49-8.31,6.34-14.46,8.54-6.15,2.2-12.97,3.3-20.47,3.3-8.02,0-15.43-1.62-22.22-4.85Zm40.85-55.31v-2.72c0-5.17-1.72-9.28-5.14-12.32-3.43-3.04-7.93-4.56-13.49-4.56s-10.06,1.52-13.49,4.56c-3.43,3.04-5.14,7.15-5.14,12.32v2.72h37.26Z"/><path class="cls-1" d="M711.83,225.47c-3.1-3.82-4.66-9.41-4.66-16.79,3.75,.78,7.18,1.17,10.28,1.17s5.89-.49,7.96-1.46c2.07-.97,4.04-2.75,5.92-5.34,1.87-2.59,3.98-6.47,6.31-11.64l2.91-6.6-37.26-90.82c.9-.65,2.62-1.17,5.14-1.55,2.52-.39,4.62-.58,6.31-.58,4.01,0,7.73,.84,11.16,2.52,3.43,1.68,5.72,4.08,6.89,7.18l19.02,50.65-3.3,9.51,1.75,.58,23.68-60.74c1.29-3.23,3.59-5.66,6.89-7.28,3.3-1.62,7.02-2.43,11.16-2.43,1.68,0,3.78,.19,6.31,.58,2.52,.39,4.24,.91,5.14,1.55l-43.27,105.18c-4.53,11-9.54,19.08-15.04,24.26-5.5,5.17-12.32,7.76-20.47,7.76-5.43,0-9.7-1.91-12.81-5.72Z"/><path class="cls-2" d="M828.27,187.73c-6.6-3.1-11.74-7.4-15.43-12.9-3.69-5.5-5.53-11.74-5.53-18.73v-25.81c0-7.5,1.84-14.17,5.53-19.99,3.69-5.82,8.83-10.35,15.43-13.58,6.6-3.23,14.1-4.85,22.51-4.85,7.89,0,14.88,1.13,20.96,3.4,6.08,2.27,10.83,5.4,14.26,9.41,3.43,4.01,5.14,8.6,5.14,13.78,0,4.27-1.68,7.7-5.05,10.29-3.37,2.59-7.83,3.88-13.39,3.88-1.68,0-2.91-.06-3.69-.19,0-5.17-1.62-9.41-4.85-12.71-3.24-3.3-7.44-4.95-12.61-4.95s-9.41,1.59-12.71,4.75c-3.3,3.17-4.95,7.21-4.95,12.13v22.51c0,4.53,1.65,8.22,4.95,11.06,3.3,2.85,7.6,4.27,12.9,4.27s9.41-1.62,12.71-4.85c3.3-3.23,4.95-7.44,4.95-12.61,.9-.13,2.2-.19,3.88-.19,5.56,0,10.02,1.26,13.39,3.78,3.36,2.52,5.05,5.92,5.05,10.19,0,5.18-1.72,9.77-5.14,13.78-3.43,4.01-8.25,7.15-14.46,9.41-6.21,2.26-13.26,3.4-21.15,3.4-8.54,0-16.11-1.55-22.7-4.66Z"/><path class="cls-2" d="M922.97,187.73c-6.99-3.1-12.49-7.4-16.5-12.9-4.01-5.5-6.02-11.74-6.02-18.73v-25.81c0-7.11,1.94-13.61,5.82-19.5,3.88-5.88,9.31-10.51,16.3-13.88,6.99-3.36,14.88-5.04,23.67-5.04s16.69,1.68,23.67,5.04c6.99,3.37,12.42,7.99,16.3,13.88,3.88,5.89,5.82,12.39,5.82,19.5v25.81c0,6.99-2.01,13.23-6.02,18.73-4.01,5.5-9.51,9.8-16.5,12.9-6.99,3.11-14.75,4.66-23.29,4.66s-16.3-1.55-23.29-4.66Zm37.45-22.32c3.36-2.72,5.05-6.47,5.05-11.25v-22.51c0-5.05-1.72-9.12-5.14-12.23-3.43-3.1-8.12-4.66-14.07-4.66s-10.64,1.55-14.07,4.66c-3.43,3.1-5.14,7.18-5.14,12.23v22.51c0,4.79,1.68,8.54,5.05,11.25,3.36,2.72,8.08,4.08,14.17,4.08s10.8-1.36,14.17-4.08Z"/><path class="cls-2" d="M1004.67,112.05c0-6.47,2.07-11.45,6.21-14.94,4.14-3.49,10.41-5.24,18.82-5.24v11.45c-1.94,2.07-3.56,4.27-4.85,6.6l1.36,.78c4.14-6.21,8.44-10.9,12.9-14.07,4.46-3.17,9.8-4.75,16.01-4.75,10.99,0,18.63,5.5,22.9,16.49,3.23-5.17,7.37-9.22,12.42-12.13,5.05-2.91,10.74-4.37,17.08-4.37,8.8,0,15.82,3.24,21.06,9.7,5.24,6.47,7.86,14.68,7.86,24.65v50.65c0,5.56-2.13,9.54-6.4,11.93-4.27,2.39-10.87,3.59-19.79,3.59v-63.84c0-4.4-.97-7.89-2.91-10.48-1.94-2.59-4.98-3.88-9.12-3.88s-7.64,1.46-10.48,4.37c-2.85,2.91-4.27,7.8-4.27,14.65v43.66c0,5.56-2.1,9.54-6.31,11.93-4.21,2.39-10.71,3.59-19.5,3.59v-63.84c0-4.4-.97-7.89-2.91-10.48-1.94-2.59-4.92-3.88-8.93-3.88-9.96,0-14.94,6.66-14.94,19.99v42.69c0,5.56-2.13,9.54-6.4,11.93-4.27,2.39-10.87,3.59-19.79,3.59V112.05Z"/><path class="cls-2" d="M1156.81,70.52c0-5.43,2.23-9.7,6.69-12.81s11.22-4.66,20.28-4.66v44.25c-2.2,1.55-3.62,2.85-4.27,3.88l.78,.97c3.36-3.23,7.86-5.75,13.49-7.57,5.63-1.81,10.7-2.72,15.23-2.72,11.51,0,20.7,3.27,27.56,9.8,6.86,6.53,10.29,14.98,10.29,25.32v30.08c0,6.73-1.72,12.78-5.14,18.14-3.43,5.37-7.96,9.58-13.58,12.61-5.63,3.04-11.61,4.56-17.95,4.56-7.12,0-13.17-1.39-18.14-4.17-4.98-2.78-9.48-6.89-13.49-12.32l-.97,.78c.65,1.16,1.87,2.85,3.69,5.04,0,3.37-1.88,5.99-5.63,7.86-3.75,1.87-10.03,2.81-18.82,2.81V70.52Zm58.7,95.28c3.17-2.46,4.75-6.02,4.75-10.67v-26.2c0-4.53-1.59-8.02-4.75-10.48-3.17-2.46-7.73-3.69-13.68-3.69-5.43,0-9.87,1.29-13.29,3.88-3.43,2.59-5.14,5.76-5.14,9.51v27.94c0,3.88,1.71,7.08,5.14,9.61,3.43,2.52,7.86,3.78,13.29,3.78,5.95,0,10.51-1.23,13.68-3.69Z"/></svg>